<?xml version="1.0" encoding="UTF-8" standalone="no"?>
<!-- Created with Inkscape (http://www.inkscape.org/) -->
<svg xmlns:dc="http://purl.org/dc/elements/1.1/" xmlns:cc="http://web.resource.org/cc/" xmlns:rdf="http://www.w3.org/1999/02/22-rdf-syntax-ns#" xmlns:svg="http://www.w3.org/2000/svg" xmlns="http://www.w3.org/2000/svg" xmlns:sodipodi="http://sodipodi.sourceforge.net/DTD/sodipodi-0.dtd" xmlns:inkscape="http://www.inkscape.org/namespaces/inkscape" width="871.55255" height="281.85306" id="svg10885" sodipodi:version="0.32" inkscape:version="0.44" sodipodi:docbase="F:\Logos" sodipodi:docname="Cypress-Semiconductor-logo.svg" version="1.0">
  <defs id="defs10887"/>
  <sodipodi:namedview id="base" pagecolor="#ffffff" bordercolor="#666666" borderopacity="1.0" inkscape:pageopacity="0.0" inkscape:pageshadow="2" inkscape:zoom="0.96494468" inkscape:cx="435.77628" inkscape:cy="140.92653" inkscape:document-units="px" inkscape:current-layer="layer1" inkscape:window-width="925" inkscape:window-height="573" inkscape:window-x="154" inkscape:window-y="154"/>
  <metadata id="metadata10890">
    <rdf:RDF>
      <cc:Work rdf:about="">
        <dc:format>image/svg+xml</dc:format>
        <dc:type rdf:resource="http://purl.org/dc/dcmitype/StillImage"/>
      </cc:Work>
    </rdf:RDF>
  </metadata>
  <g inkscape:label="Ebene 1" inkscape:groupmode="layer" id="layer1" transform="translate(95.77627,-431.4357)">
    <path id="path10379" style="fill:#09367a;fill-opacity:1;fill-rule:nonzero;stroke:none" d="M 176.92256,582.47246 L 179.31923,578.96604 L 181.24698,574.6781 C 181.71589,575.16264 182.3411,575.51172 183.01842,575.76181 C 184.42516,576.26198 185.5714,577.29359 187.03024,577.43948 C 189.89581,577.71561 191.14625,575.46483 190.05211,579.19008 C 189.63531,580.6854 188.95799,581.78473 187.86385,582.47246 L 176.92256,582.47246 M 178.90241,601.95839 L -13.403929,601.95839 L -13.403929,601.97403 C -13.768639,600.23905 -14.081249,598.49366 -14.393849,596.73784 L -14.393849,596.70136 L -93.014899,596.70136 L -93.692219,596.69616 C -94.265329,593.24704 -94.734239,589.74583 -95.098949,586.20813 L -94.577939,586.18729 L 173.01494,586.18729 C 173.01494,586.18729 178.12089,592.42384 174.10908,593.85142 C 171.03509,594.95076 171.66032,596.48254 169.73256,595.16437 C 167.75271,593.85142 168.37792,595.16437 167.07539,594.28908 C 165.77285,593.41897 165.77285,597.35785 167.75271,597.7955 C 169.73256,598.23314 177.18307,596.92019 178.01668,599.32728 C 178.90241,601.73436 178.90241,601.95839 178.90241,601.95839 M -85.460189,519.38286 C -84.001349,515.79828 -82.386209,512.28144 -80.666869,508.85837 L -80.093739,508.96258 L 34.164671,508.96258 L 34.164671,509.11888 C 31.976411,508.96258 28.381411,510.94243 26.766271,512.40648 C 25.203221,513.78717 33.070541,513.50061 34.425171,514.15709 C 35.779811,514.85004 23.483881,518.53881 19.524171,515.47526 C 18.013231,514.3186 10.979541,515.25122 3.1122214,516.56938 C 3.1122214,516.56938 7.2803314,520.72707 12.750981,519.19529 C 18.846851,518.10116 16.345981,520.81565 15.564461,521.38877 C 14.470331,522.18071 10.979541,523.35298 7.2803314,522.73298 C 2.2265014,521.38877 0.92396143,518.31999 -8.0895786,524.72847 L -8.1937786,524.62427 C -7.5685686,522.86323 -6.8912486,521.11263 -6.1618286,519.38286 L -6.1097286,519.47144 L -85.147579,519.47144 M -41.642889,461.42003 C -36.745359,457.56452 -31.535219,454.03726 -26.168779,450.85387 L -25.908269,450.82781 L 195.52276,450.82781 L 195.78327,450.90597 C 203.44218,455.42837 210.68428,460.66977 217.35326,466.52597 L 217.45746,466.4843 L 31.768001,466.4843 L 31.455391,466.52597 C 33.435251,464.74931 35.519301,463.02997 37.655461,461.36272 L 37.655461,461.34188 L -41.590789,461.34188 M 124.40432,431.53987 C 147.64156,431.53987 169.62835,437.16682 188.95799,447.15988 L 188.64537,447.10778 L 60.475881,447.10778 L 59.746461,447.18072 C 63.393561,445.29986 67.144861,443.5753 70.948271,442.01225 L 70.531461,441.96015 L -8.1937786,441.96015 L -8.4021886,442.01225 C 8.1139614,435.23907 26.193151,431.53987 45.105971,431.53987 L 45.679081,431.43566 L 127.79092,431.43566 M 137.53388,556.41655 C 131.69853,555.43705 133.41787,552.04524 127.47831,552.47768 C 124.40432,552.6965 121.64295,554.14492 119.35048,554.66594 C 114.29664,553.06122 107.31506,558.73506 104.44948,559.26129 C 100.75028,557.07824 98.770431,557.94313 95.279631,559.48011 C 91.788841,559.70415 91.997241,557.29185 88.923261,557.07824 C 86.891301,556.92714 85.484561,557.0105 83.452611,556.64058 C 81.472761,556.27066 79.492901,557.90665 77.513051,557.29185 C 76.418921,556.41655 81.055941,553.79064 79.961811,553.13416 C 76.158411,550.86775 74.543271,554.75973 70.739861,554.22829 C 69.958341,554.11366 66.050741,553.00391 64.852401,552.47768 C 63.810371,552.04004 62.612041,550.94068 61.570011,550.50304 C 60.111171,549.90388 60.163271,550.91464 59.121251,550.94068 C 58.287621,550.96674 57.662411,555.53604 55.838861,556.85941 C 55.005231,554.57737 50.993431,553.1081 54.119511,549.84656 C 53.025381,549.82051 53.025381,547.68435 51.931251,547.6583 L 50.837121,547.43948 L -92.598079,547.43948 L -93.535909,547.42906 C -94.161129,550.88859 -94.682139,554.40023 -95.046849,557.94313 L -15.748489,557.94313 C -15.956899,559.68331 -16.113199,560.99106 -16.217409,562.75208 L -16.217409,562.7625 L 150.87184,562.7625 L 151.75757,562.85628 C 152.9038,562.81982 147.58946,559.69893 144.09866,559.69893 L 137.53388,556.41655 M 156.96771,559.44364 C 157.22822,559.31339 158.11395,559.5791 158.53075,559.48011 C 161.50054,558.808 163.7409,558.78716 165.56445,559.03725 C 168.95104,559.53222 167.5443,560.2408 170.82668,557.07824 C 171.92082,555.98932 170.14938,554.1866 168.84683,554.00947 C 167.6485,553.84795 166.34597,554.17098 165.09554,554.22829 C 163.89721,554.27518 162.69887,556.20293 161.18792,556.20293 C 159.93749,555.34326 160.97952,554.00947 160.0938,552.91013 C 158.53075,552.04004 157.12401,552.66525 155.71728,552.04004 C 154.25844,551.41481 152.53909,550.65413 151.08025,550.06539 C 150.29873,549.74757 148.63148,550.77917 147.58946,550.50304 C 145.14069,549.84656 142.32721,550.50304 139.72214,550.50304 C 146.49532,555.76007 147.58946,552.47768 151.08025,556.20293 C 150.45504,556.48949 154.98786,557.11992 154.36264,557.29185 L 156.96771,559.44364 M 0.71556143,528.20363 C 0.71556143,529.7302 2.4349014,529.27171 3.7374414,529.59474 C 5.1962814,530.2408 5.7172914,530.1418 9.4164914,530.36583 C 10.771131,530.78265 10.354321,531.84031 9.8854114,531.6788 C 4.5189614,532.00182 6.9677314,533.61697 7.0719314,534.02336 C 7.9055514,537.10255 12.438381,535.95632 14.157721,537.70172 C 16.658591,540.213 21.243511,536.40439 24.109091,536.38355 C 26.974671,536.36271 31.194891,537.85281 34.425171,534.63295 C 35.050391,533.97647 40.885751,539.5409 47.867341,536.93062 C 51.358131,535.61246 50.368211,537.14423 45.470681,539.99418 C 44.480751,540.55688 42.813501,541.08831 41.927781,541.74479 C 40.416841,542.91187 40.833651,542.83892 41.198361,543.93825 L -12.882919,543.93825 L -13.612339,543.92263 C -13.247619,542.21891 -12.882919,540.52562 -12.466099,538.84274 L -12.466099,538.67601 L -90.826639,538.67601 L -91.660259,538.63433 C -90.826639,535.11228 -89.836709,531.61106 -88.690479,528.20363 L -88.221569,528.17237 L 0.71556143,528.17237 L 0.71556143,528.20363 M 57.506101,543.93825 C 56.307771,541.20293 58.131321,538.90005 56.620381,538.4624 C 54.119511,537.25886 54.015311,540.86948 50.211901,540.54124 L 48.961471,541.08831 C 48.961471,542.02614 48.075751,543.43808 48.388351,543.61001 L 48.284151,543.93825 L 57.506101,543.93825 M 101.636,489.69026 L -68.839829,489.69026 L -68.839829,489.56001 C -71.288609,492.95702 -73.633169,496.47908 -75.821419,500.09492 L -75.508819,500.19912 L 3.0080214,500.19912 L 3.4248314,500.14702 C 2.3828014,501.91326 1.3407714,503.69512 0.35085143,505.51868 L 0.92396143,505.45615 L 53.442191,505.45615 L 55.838861,504.74758 C 54.744731,503.96605 54.223711,502.17376 54.744731,501.67879 C 55.265741,501.20468 56.776681,502.01225 59.798571,502.11645 C 62.559941,502.21544 58.704441,498.61524 63.080951,498.61524 L 65.477621,495.98933 C 66.832261,495.36932 67.874291,495.07234 69.228921,494.45233 C 71.521381,493.39467 72.042401,496.97404 74.491171,496.20294 C 76.783631,495.4683 77.200441,494.3846 79.701311,494.23351 C 81.212251,494.14493 81.837471,495.56209 83.452611,495.7705 C 84.129931,495.85386 84.650941,493.56661 85.432461,492.70172 C 85.849271,492.2276 87.516521,493.36862 88.037531,493.13937 C 90.798911,491.90458 90.903111,492.13903 93.508181,492.92054 C 94.862821,493.32174 96.113251,494.95251 95.904851,494.88999 C 98.145211,495.55167 101.636,495.25469 101.3755,495.33285 C 104.24108,494.45233 105.33521,490.51346 103.35535,490.07582 L 101.636,489.69026 M 340.83362,536.07615 C 336.3529,532.43427 327.13095,535.9459 322.07711,530.57424 C 331.19486,527.27102 341.19833,529.95945 349.89926,526.53638 C 350.68079,526.2394 349.89926,521.71179 351.61862,522.44121 C 354.17158,523.53535 356.51615,523.78543 358.80861,523.27483 C 360.21535,522.96744 361.04897,520.66455 362.45571,520.38841 C 367.04064,519.46622 371.78186,520.95111 376.41889,514.81356 C 373.55331,513.06296 362.0389,516.04837 360.63216,514.81356 C 361.20527,514.23003 362.24731,511.46345 362.82042,510.8747 C 353.85898,511.96883 349.69087,511.40613 342.03196,511.96883 L 339.8437,511.75001 C 337.55123,511.92194 337.70754,510.25469 335.46718,510.21301 L 332.18479,512.18765 C 328.17297,512.13035 327.33936,513.63607 323.64015,512.18765 C 320.61827,511.01537 320.61827,509.95251 317.28378,509.33771 L 310.71901,509.11888 C 308.27024,508.68122 305.76937,509.29081 304.93575,505.96153 C 304.72734,504.98203 306.39459,503.83579 308.11393,504.30992 C 308.11393,503.14285 308.11393,501.97056 308.11393,500.8087 C 304.57103,502.79897 301.80966,497.19286 297.27684,500.40752 C 296.86002,500.71492 295.34908,499.00078 295.818,497.30228 C 289.40952,497.30228 283.00105,497.77641 276.59257,497.06261 C 275.29003,496.92194 274.35222,495.49957 274.82113,493.79585 C 265.18236,494.16577 254.18896,501.13694 247.93679,497.2085 C 246.37375,496.24462 245.59223,496.66143 243.92498,495.98933 L 242.83086,496.13 C 241.42412,493.93132 239.96528,491.78474 238.45433,489.68505 L 238.45433,489.69026 L 203.44218,489.69026 L 207.61029,493.57703 L 212.82044,492.92054 C 209.79855,496.64059 202.34805,498.39641 204.06739,498.83406 C 213.81036,501.2672 214.38347,499.05288 216.98855,501.02233 C 219.12471,502.61142 220.94826,499.29255 223.55332,499.49054 C 226.1063,499.68331 230.84753,501.1161 233.40049,501.18904 C 235.90137,501.26199 238.08962,497.52632 240.22578,498.83406 C 246.58215,502.77813 252.99063,501.95494 259.03439,501.45997 C 261.27475,501.28283 264.60924,498.21927 267.37063,498.61524 C 268.72526,498.81322 270.23619,499.32902 269.76729,501.02233 C 277.26989,499.04246 282.89684,503.21579 291.23307,501.02233 C 292.74401,503.52319 292.48351,503.5805 294.51546,504.96639 C 297.17263,506.77953 296.44321,503.25747 299.10038,504.74758 C 301.70545,500.43878 301.34075,511.03621 302.59118,511.75001 C 308.53075,515.06886 314.4182,511.09353 321.45189,516.20988 C 326.14102,516.30888 331.92428,515.26685 336.76971,515.25122 C 338.38486,515.24601 342.18825,515.94938 343.8034,515.9129 C 347.81521,515.81912 351.0976,514.65727 354.9531,515.0376 C 357.66238,515.30853 356.88085,517.05393 359.53804,518.10116 C 356.30774,520.03413 351.2539,518.54923 347.91941,519.63295 C 344.42862,520.76876 347.0337,523.02996 343.8034,524.2335 C 342.39666,524.73889 331.14276,524.81182 329.73602,525.32763 C 325.5158,526.88546 323.74436,526.44261 319.05522,527.95354 C 316.91906,528.63607 316.60646,531.45997 318.79472,533.4242 C 319.99305,534.62773 321.24348,535.47178 322.54603,536.07615 L 340.83362,536.07615 M 322.54603,536.07615 C 326.40153,537.91533 329.89232,537.70172 334.99827,537.70172 C 338.85377,537.04003 330.20494,539.99418 336.14449,547.31443 C 342.76138,551.70658 335.46718,549.38807 335.77979,549.08067 C 334.52935,548.23663 330.93436,543.56313 330.56964,543.35472 C 322.28552,538.72812 321.8687,550.36237 313.32408,551.27414 C 312.17784,551.39397 311.08371,549.79967 311.60472,548.09596 C 309.26017,548.09596 306.65509,547.46553 304.72734,548.41377 C 304.25843,548.64823 303.06009,551.27934 302.59118,552.25885 C 301.28864,555.20258 297.12053,554.36897 294.93227,554.00947 L 294.09865,553.79064 C 291.33727,553.33215 289.61793,552.4881 287.48177,554.00947 C 283.52206,556.88547 285.81452,554.33771 281.90692,555.43705 C 275.55055,557.21891 270.60091,561.89761 264.29664,563.86184 C 264.29664,563.86184 267.57902,565.60724 269.08997,567.58189 C 270.65301,569.55132 270.4446,569.33249 276.54047,570.42662 C 282.68844,571.52595 285.29351,569.55132 285.29351,569.55132 L 289.04482,571.0831 C 288.78431,571.031 300.45502,573.15674 300.19452,573.09942 C 298.99618,572.83892 300.50712,570.83823 301.75755,569.99418 C 297.84995,566.24288 302.22647,569.1866 306.9677,564.73715 C 310.92741,571.78126 312.90726,575.05323 321.8687,569.33249 C 324.26537,567.8007 319.05522,564.95598 323.17124,564.07546 C 330.56964,564.72673 337.65544,566.92541 345.52275,564.07546 C 352.97325,566.92541 361.56999,565.60724 368.08266,566.26372 C 367.24905,567.49852 365.47759,568.85836 364.33136,569.4888 C 363.23723,570.11401 364.64397,571.77084 365.8944,572.62009 C 355.36991,571.52595 348.64883,576.17861 344.42862,575.246 C 339.53108,574.1675 336.2487,572.44294 333.69573,572.40126 C 331.14276,572.35958 329.26711,574.00077 326.71414,574.37069 C 319.99305,575.32416 309.41646,578.4294 301.28864,576.77778 L 289.93053,575.68366 C 281.02119,575.85559 276.12366,575.02718 269.55888,571.96361 L 264.08823,571.52595 C 264.08823,571.52595 259.45121,570.64544 258.61758,569.99418 C 257.73186,569.33249 256.84614,570.64544 256.63773,571.30192 C 256.42932,571.96361 256.84614,572.83892 254.86628,573.27657 C 252.88642,573.71422 253.56374,574.37069 253.56374,575.46483 C 253.56374,576.56417 255.96041,579.19008 256.22091,580.72186 C 256.42932,582.25365 257.15874,582.47246 257.15874,582.47246 L 264.92185,582.47246 C 265.18236,579.14319 264.97396,578.41377 264.97396,575.02718 L 265.80758,575.02718 C 265.91179,574.67289 271.43453,577.36653 271.53874,577.00182 C 280.70858,580.72186 285.29351,577.49158 297.58944,580.2842 C 307.2282,582.47246 314.20979,577.4499 325.72421,579.21092 C 328.43348,579.62774 330.83015,576.46517 332.44529,576.84551 C 338.48906,578.25225 345.31434,580.39883 349.79507,578.37209 C 360.63216,573.49018 363.75825,579.04419 368.49948,575.246 C 371.26085,573.02648 367.61375,566.48775 377.87773,566.8212 C 378.60715,566.84725 381.78534,561.17341 379.44077,561.88719 C 370.27092,564.73715 367.87426,561.57459 364.38347,561.44955 C 361.10107,561.33492 358.496,562.27796 354.4842,562.10602 C 352.66064,562.03308 348.23203,559.79272 346.40847,559.69893 C 343.6992,559.56868 340.52102,562.27275 337.86383,561.76736 C 333.0184,560.83996 333.64363,562.11124 331.71587,561.88719 C 330.46544,561.74132 328.38138,559.56868 325.82841,559.69893 C 324.52588,559.76667 321.45189,560.22516 319.47204,560.35542 C 318.48211,560.42315 316.60646,570.30158 314.67871,568.01953 C 314.67871,568.01953 310.25009,565.38841 310.92741,562.32485 C 311.60472,559.26129 308.32234,559.69893 308.11393,560.13659 C 307.85343,560.57424 304.77944,565.1748 299.7777,564.95598 C 294.72386,564.73715 296.49532,566.70658 297.38103,567.8007 C 298.21466,568.89484 296.70371,570.20779 296.49532,569.99418 C 296.2348,569.77015 291.85828,568.89484 291.02467,568.23836 C 290.13894,567.58189 286.64815,566.04489 283.36576,566.92541 C 280.08336,567.8007 277.00939,568.89484 274.82113,567.36306 C 272.63286,565.82607 271.74714,564.07546 271.74714,564.07546 C 271.33033,563.20015 274.61272,563.42419 275.91525,561.44955 C 277.21778,559.48011 283.57416,557.7295 283.57416,557.7295 C 283.57416,557.7243 287.74227,560.35542 290.34735,561.0119 C 292.95242,561.66838 301.96596,562.7625 295.818,559.48011 C 289.67003,556.20293 293.62974,556.64058 296.91212,557.7295 C 300.19452,558.82364 303.2685,557.29185 303.2685,557.29185 C 306.02987,556.48427 305.66517,552.6965 306.9677,551.37834 C 307.64502,550.72187 310.5106,552.7434 310.04168,554.44712 C 317.7006,555.312 320.35777,554.22829 325.1511,546.78299 C 329.99653,543.93825 330.98645,549.90388 333.69573,551.37834 C 337.39493,553.4103 340.72941,552.77466 343.12608,548.97647 C 343.8555,547.85107 337.96804,546.79863 337.29072,544.37591 C 336.76971,542.40126 336.5613,541.30714 338.54116,540.65066 C 339.63529,540.27553 344.01181,541.30714 342.39666,538.1029 C 341.97986,537.25365 341.45883,536.59196 340.83362,536.07615 L 322.54603,536.07615 M 231.47274,581.92541 C 233.1921,580.17479 230.63912,580.34152 233.97361,578.96604 L 239.02745,578.20016 C 239.44427,577.65829 239.34006,576.88719 239.13165,576.23072 C 238.87114,575.56903 237.256,576.56417 235.48455,576.66837 C 233.76521,576.77778 233.8694,575.02718 234.28622,573.71422 C 234.75513,572.40126 234.85933,572.50547 235.74506,571.84899 C 236.57869,571.19251 238.66274,572.29185 240.6426,572.40126 C 242.62245,572.50547 244.39389,570.20779 244.6023,569.88476 C 244.81071,569.55132 244.81071,569.33249 245.22752,569.88476 C 245.69644,570.42662 248.61411,572.40126 249.29142,572.62009 C 249.96874,572.83892 250.07295,573.49018 249.86455,574.4749 C 249.60404,575.46483 250.85447,577.43948 251.47969,578.30957 C 252.157,579.19008 252.57382,582.47246 252.57382,582.47246 L 230.58702,582.47246 L 231.47274,581.92541 M 221.93819,582.47246 L 216.15493,582.47246 C 216.15493,582.46726 214.38347,580.04454 214.48768,577.54367 C 214.59188,575.02718 216.67594,574.58952 218.18688,576.44954 C 219.74993,578.30957 218.8642,578.74721 220.27094,580.17479 C 221.46927,581.33666 223.24072,579.62774 222.8239,581.26371 C 222.5113,582.36827 221.93819,582.47246 221.93819,582.47246 M 169.73256,582.47246 L -16.165309,582.47246 C -16.269509,580.72186 -16.373699,578.98167 -16.425819,577.22065 L -95.307349,577.22065 L -95.672069,577.21543 C -95.724169,575.61592 -95.776269,574.01119 -95.776269,572.40126 C -95.776269,570.49435 -95.724169,568.58744 -95.619969,566.69616 L -94.786339,566.70658 L 162.69887,566.70658 C 162.69887,566.70658 163.793,569.11367 163.58459,570.64544 C 163.37618,572.18244 162.49047,571.73958 165.35604,575.68366 C 168.16951,579.62774 169.73256,581.37312 169.73256,582.47246 M 223.55332,575.90248 C 227.20043,574.06331 230.79543,575.246 229.9097,577.00182 C 226.0021,584.66073 227.30463,578.09074 223.34493,577.43948 L 223.55332,575.90248 M 191.40675,566.70658 C 192.55299,567.59751 189.89581,572.35958 188.54117,572.83892 C 185.72769,573.81842 180.88226,566.26372 183.69574,566.70658 L 191.40675,566.70658 M 178.22509,566.70658 C 178.3814,566.95667 177.18307,571.32276 177.39147,571.52595 L 175.41161,574.58952 C 174.8385,573.98515 173.69227,577.90317 173.22335,577.22065 C 172.12923,575.02718 170.56618,574.86045 169.94097,573.05774 C 169.52415,571.87503 169.21155,567.87365 169.05524,566.70658 L 178.22509,566.70658 M 185.884,589.61558 C 183.07052,593.85142 184.73777,596.99835 183.95625,597.35785 C 182.65372,597.92054 181.66378,595.82606 180.67386,594.51311 C 179.84024,593.45024 179.52763,592.44468 179.31923,591.00668 C 179.11082,589.18834 178.95451,588.30261 180.46545,587.28663 C 181.14277,590.0376 187.08233,587.75034 185.884,589.61558 M 175.30741,485.78266 C 175.77633,484.08936 175.20322,482.29186 174.31749,482.5732 C 167.07539,484.91257 160.1459,487.99176 153.58112,484.88651 C 151.54916,483.93826 155.61307,480.87991 156.13409,478.56661 C 156.603,476.36272 152.8517,476.37835 151.70547,477.28491 C 144.20287,483.14633 136.33555,485.63677 132.16744,476.94104 C 130.91701,477.7903 130.34388,480.59857 130.8649,482.30749 C 124.87323,482.87018 119.03788,480.82781 113.35882,481.09352 C 110.28484,481.2342 112.99411,484.0112 114.19245,485.77224 L 13.845111,485.7514 L 13.272001,485.79308 C 14.626631,484.03726 16.033371,482.3127 17.492211,480.61941 L 17.492211,480.60377 L -61.285129,480.60377 L -61.754049,480.61941 C -58.575859,476.94104 -55.241369,473.41899 -51.698469,470.07928 L -51.542169,470.09492 L 221.26087,470.09492 L 221.36506,470.1887 C 226.47101,475.02372 231.21223,480.24427 235.53665,485.79308 L 175.30741,485.78266 M 257.05454,586.49991 C 258.20077,585.27552 250.28136,591.86635 248.3015,591.44434 C 247.20737,591.21509 241.16361,587.28663 240.43419,587.50546 C 229.9097,590.66281 240.7989,589.60516 242.20564,590.77222 C 243.82078,592.11644 245.74854,593.68469 245.48803,593.85142 C 243.66447,595.0237 240.06948,596.49817 235.58875,596.04488 C 233.81731,595.85733 233.08789,589.61558 231.00382,587.50546 L 231.47274,586.18729 L 257.05454,586.18729 L 257.05454,586.49991 M 261.43106,586.18729 L 264.60924,586.18729 C 264.08823,591.54853 263.2546,596.80557 262.16048,601.97403 L 261.69157,601.95839 L 233.92151,602.07823 C 234.28622,602.36479 234.28622,599.70241 234.75513,599.76493 C 243.40397,601.0362 255.4394,592.85628 261.43106,586.18729 M 220.73985,601.0831 C 223.97014,601.98445 224.85586,600.08275 227.72144,600.20259 C 228.19036,600.22343 229.49289,598.99383 230.17021,599.10845 L 231.00382,596.26371 C 229.75339,595.24253 231.21223,593.26267 227.30463,593.63259 L 220.73985,601.0831 M 219.1768,598.45197 C 218.23898,599.06156 217.77006,599.48359 217.40536,598.71248 C 215.47761,594.15882 216.88435,589.81355 222.14659,590.78785 C 227.09622,591.71526 218.9163,595.41967 220.94826,596.26371 L 219.1768,598.45197 M 180.67386,620.00633 C 180.88226,618.99036 180.77807,618.00563 180.62176,616.94797 C 179.99653,613.05601 182.18481,609.27864 180.77807,605.56903 L 180.77807,605.68365 L -91.139249,605.68365 L -91.816569,605.70449 C -90.930839,609.26822 -89.940909,612.78507 -88.794679,616.23939 L -87.752649,616.1873 L -9.5484186,616.1873 L -9.5484186,616.23939 C -8.9753086,618.00043 -8.3500886,619.74582 -7.7248686,621.4756 L -7.3080686,621.33491 L 180.56966,621.34013 L 180.67386,620.00633 M 166.76277,641.03967 C 167.23169,639.22133 168.69054,637.9657 170.14938,637.05913 C 172.59814,635.52734 174.68219,634.11019 175.82843,631.57284 C 176.76625,629.58257 175.77633,627.38911 175.93263,625.27379 L 176.19314,624.98722 L -85.043379,624.94555 L -85.616489,624.96117 C -84.209749,628.53533 -82.594619,632.03655 -80.875259,635.45962 L -80.093739,635.4544 L -1.7332086,635.4544 L -1.5769086,635.5065 C -0.74327857,637.22584 0.14244143,638.93478 1.0802714,640.61765 L 1.4449814,640.60202 L 166.76277,640.60202 L 166.76277,641.03967 M 13.949321,659.86392 C 12.594681,658.18625 11.344251,656.48253 10.041711,654.74234 L 10.041711,654.72672 L -69.152449,654.72672 L -69.152449,654.79444 C -71.601219,651.38701 -73.945779,647.85975 -76.081929,644.23349 L -75.196209,644.21265 L 159.41648,644.21265 L 159.10387,644.54609 C 158.79126,645.19737 158.47865,645.84864 158.16605,646.48427 C 156.08199,650.42835 151.34075,652.32484 150.24663,656.84203 C 149.98612,657.957 149.413,658.9313 148.78779,659.86913 L 13.949321,659.86913 M 141.59779,678.91219 C 141.59779,678.99035 141.59779,679.06329 141.59779,679.13624 C 141.7541,678.63085 141.9104,678.09942 141.9625,677.59403 C 142.27511,674.0876 141.5457,670.64891 142.17091,667.11643 C 142.37931,665.92331 143.00453,664.8396 143.10873,663.58917 L 143.42135,663.51101 L -61.806139,663.47455 L -62.327159,663.52665 C -59.201069,667.16853 -55.970789,670.65412 -52.479989,673.96777 L -51.958979,673.98861 L 27.078871,673.98861 L 26.818371,674.02508 C 28.641921,675.80174 30.569671,677.52109 32.497421,679.18833 L 32.497421,679.13624 L 141.59779,679.13624 L 141.59779,678.91219 M 129.97918,698.83578 C 130.8128,695.18868 135.24143,693.84967 136.07504,690.24426 C 136.64815,687.64439 137.22128,685.2321 137.63808,682.63744 L 137.63808,682.75728 L -42.372309,682.74686 L -42.372309,682.80938 C -37.578989,686.63884 -32.473039,690.15568 -27.158699,693.34429 L -26.898189,693.25571 L 52.035451,693.29219 C 55.109441,695.147 58.287621,696.88197 61.517911,698.50233 L 62.195231,698.29393 L 129.97918,698.40334 L 129.97918,698.83578 M 124.71694,712.85627 C 124.66484,712.85627 124.56063,712.85627 124.50853,712.85627 C 124.61273,711.95491 124.61273,710.87641 125.23795,710.33977 C 127.68671,708.20882 128.83295,705.48392 129.51027,702.56103 L 129.51027,702.33699 L -9.3921086,702.33699 L -9.6005186,702.25884 C 7.2282314,709.35505 25.724241,713.28349 45.105971,713.28349 L 46.669011,713.28871 L 124.40432,713.28871 L 124.40432,713.28349 C 124.92534,713.28349 123.98752,713.28349 124.50853,713.27829 L 124.71694,712.85627 M 203.54638,621.33491 C 203.54638,616.81252 208.49602,614.25954 211.3616,611.00842 C 212.03892,610.24253 212.50783,609.35159 212.92463,608.41377 C 213.34145,607.49678 213.18514,606.40786 213.81036,605.56903 L 213.81036,605.68365 L 261.43106,605.68365 L 261.27475,605.77222 C 260.02432,611.09178 258.40917,616.28107 256.53353,621.34013 L 203.54638,621.33491 M 192.13617,640.60202 C 192.91769,639.461 193.33451,637.94484 194.58494,637.43425 C 199.69087,635.4023 204.38001,630.81738 203.33797,625.05496 L 203.33797,624.99244 L 255.12679,625.00286 C 252.93853,630.37451 250.48976,635.59507 247.67629,640.61765 L 247.67629,640.60202 L 192.13617,640.60202 M 175.72423,660.30677 C 175.56792,659.0303 175.62002,657.6965 176.29734,656.67531 C 177.13097,655.4353 178.5377,654.96117 179.84024,654.07544 C 181.03857,653.19493 180.30915,651.44433 181.19487,650.24599 C 181.50748,649.90733 181.76799,649.55825 182.0806,649.40716 C 184.47726,648.41723 187.03024,647.1668 187.34284,644.32206 L 187.34284,644.21265 L 245.59223,644.21265 L 245.59223,644.23349 C 242.36194,649.68851 238.76695,654.91428 234.85933,659.86392 L 175.82843,659.86913 L 175.72423,660.30677 M 171.55611,679.13624 C 171.50401,678.18799 172.12923,677.40646 172.18133,676.4999 C 172.54604,673.04558 171.08719,669.44016 172.85865,666.31407 C 173.37966,665.38145 174.05698,664.42278 174.8385,663.58917 L 174.8385,663.51623 L 231.83745,663.52665 C 227.14832,669.04418 222.04238,674.19181 216.57173,678.92783 L 216.46753,679.13624 L 171.55611,679.13624 M 161.70894,698.40334 C 162.38626,696.86635 162.22996,695.2043 162.64676,693.59959 C 162.90727,692.56277 163.42829,691.69268 163.9493,690.77569 C 165.35604,688.29566 168.11741,687.42557 169.94097,685.38319 C 170.46198,684.78924 170.56618,683.76804 170.46198,682.85627 L 170.46198,682.76249 L 211.98681,682.76249 C 204.38001,688.7802 196.20008,694.04245 187.44704,698.41376 L 187.03024,698.40334 L 161.70894,698.37728 L 161.70894,698.40334 M 151.44496,710.44397 C 151.44496,710.51691 151.44496,710.58986 151.44496,710.6628 C 151.39286,708.8132 152.5912,707.44814 153.68532,706.13519 C 154.93575,704.66071 156.8635,703.97819 158.00974,702.3422 L 158.00974,702.33699 L 178.22509,702.33699 L 178.694,702.4412 C 169.88886,706.12477 160.61481,708.93824 150.97605,710.77743 L 151.44496,710.44397"/>
    <g transform="matrix(1.215841,0,0,1.215841,-7.615629,-43.43592)" id="g10876" style="fill:#09367a;fill-opacity:1">
      <path style="fill:#09367a;fill-opacity:1;fill-rule:nonzero;stroke:none" d="M 309.90273,598.72485 C 302.18934,607.9595 291.73341,612.82322 280.24903,612.82322 C 272.79275,612.82322 265.63644,610.63776 259.38002,606.36968 C 249.48117,599.71902 243.69613,588.50461 243.69613,575.59754 C 243.69613,564.97449 247.68138,555.54273 255.13766,548.39927 C 262.07971,541.74433 270.99296,538.27331 280.84896,538.27331 C 289.37654,538.27331 296.70426,540.95585 304.4605,546.41522 L 304.4605,539.76456 L 308.91713,539.76456 L 308.91713,563.18755 L 304.4605,563.18755 L 304.4605,552.77019 C 297.43275,546.11525 289.54795,542.84135 280.24903,542.84135 C 271.89286,542.84135 264.05091,546.11525 258.30872,551.87458 C 252.0523,558.12671 248.66698,566.36718 248.66698,575.59754 C 248.66698,584.33081 251.83804,592.17276 257.70879,598.33061 C 263.66524,604.48419 271.72145,607.9595 280.54899,607.9595 C 290.44784,607.9595 299.18968,603.89283 306.86022,595.54522 L 309.90273,598.72485" class="ps00" id="path10451"/>
      <path style="fill:#09367a;fill-opacity:1;fill-rule:nonzero;stroke:none" d="M 350.78369,607.35957 L 350.78369,611.22912 L 329.95754,611.22912 L 329.95754,607.35957 L 338.39942,607.35957 L 338.39942,578.87573 L 320.91573,543.73267 L 313.75942,543.73267 L 313.75942,539.76456 L 334.49987,539.76456 L 334.49987,543.73267 L 326.18655,543.73267 L 340.97055,573.41208 L 355.66884,543.73267 L 347.39837,543.73267 L 347.39837,539.76456 L 367.8817,539.76456 L 367.8817,543.73267 L 360.63969,543.73267 L 343.24171,578.87573 L 343.24171,607.35957 L 350.78369,607.35957" class="ps00" id="path10453"/>
      <path style="fill:#09367a;fill-opacity:1;fill-rule:nonzero;stroke:none" d="M 372.89541,607.35957 L 380.05172,607.35957 L 380.05172,543.63411 L 372.89541,543.63411 L 372.89541,539.76456 L 399.20664,539.76456 C 414.3763,539.76456 423.54667,548.50212 423.54667,561.40062 C 423.54667,573.61349 414.50486,582.14535 398.60671,582.14535 L 384.93687,582.14535 L 384.93687,607.35957 L 391.96462,607.35957 L 391.96462,611.22912 L 372.89541,611.22912 L 372.89541,607.35957 z M 398.90667,578.2758 C 411.3338,578.2758 418.74722,571.22662 418.74722,561.40062 C 418.74722,550.68329 411.4195,543.63411 399.12093,543.63411 L 384.93687,543.63411 L 384.93687,578.2758 L 398.90667,578.2758" class="ps00" id="path10455"/>
      <path style="fill:#09367a;fill-opacity:1;fill-rule:nonzero;stroke:none" d="M 428.38896,607.35957 L 435.50242,607.35957 L 435.50242,543.63411 L 428.38896,543.63411 L 428.38896,539.76456 L 455.25727,539.76456 C 469.6556,539.76456 478.22603,547.60651 478.22603,558.6238 C 478.22603,566.86427 474.02652,572.22079 465.58464,575.30186 C 473.64085,578.57577 474.24078,582.74528 474.24078,590.78435 L 474.24078,607.35957 L 481.26853,607.35957 L 481.26853,611.22912 L 469.48419,611.22912 L 469.48419,590.78435 C 469.48419,580.75694 466.18457,576.98595 455.38583,576.98595 L 440.38757,576.98595 L 440.38757,607.35957 L 447.41532,607.35957 L 447.41532,611.22912 L 428.38896,611.22912 L 428.38896,607.35957 z M 457.14276,573.1164 C 467.29873,573.1164 473.34088,567.25851 473.34088,558.72236 C 473.34088,549.68912 466.7845,543.63411 455.25727,543.63411 L 440.38757,543.63411 L 440.38757,573.1164 L 457.14276,573.1164" class="ps00" id="path10457"/>
      <path style="fill:#09367a;fill-opacity:1;fill-rule:nonzero;stroke:none" d="M 488.81051,607.35957 L 495.96683,607.35957 L 495.96683,543.63411 L 488.81051,543.63411 L 488.81051,539.76456 L 534.1481,539.76456 L 534.1481,552.77019 L 529.69148,552.77019 L 529.69148,543.63411 L 500.80912,543.63411 L 500.80912,572.12223 L 518.46421,572.12223 L 518.46421,565.17161 L 522.53517,565.17161 L 522.53517,583.63661 L 518.46421,583.63661 L 518.46421,576.09463 L 500.80912,576.09463 L 500.80912,607.35957 L 530.50567,607.35957 L 530.50567,594.35822 L 534.9623,594.35822 L 534.9623,611.22912 L 488.81051,611.22912 L 488.81051,607.35957" class="ps00" id="path10459"/>
      <path style="fill:#09367a;fill-opacity:1;fill-rule:nonzero;stroke:none" d="M 544.47548,589.9873 L 548.9321,589.9873 L 548.9321,598.42917 C 555.10281,605.07983 561.05926,608.35802 568.21558,608.35802 C 578.20013,608.35802 585.65641,601.20171 585.65641,591.97564 C 585.65641,584.72934 581.58545,579.86562 573.95777,577.87728 L 560.63074,574.40625 C 550.73189,571.82655 545.76104,566.16578 545.76104,557.2311 C 545.76104,546.01669 553.98866,538.17475 565.90156,538.17475 C 572.37224,538.17475 577.81446,540.65589 583.38524,545.91813 L 583.38524,539.76456 L 587.5419,539.76456 L 587.5419,558.6238 L 583.38524,558.6238 L 583.38524,551.96886 C 578.41439,545.51961 572.97217,542.44282 566.33008,542.44282 C 556.77405,542.44282 550.64619,548.39927 550.64619,556.93542 C 550.64619,563.58608 554.20292,567.45563 561.65919,569.43969 L 575.92896,573.21496 C 585.18503,575.59754 590.71296,582.2482 590.71296,591.18287 C 590.71296,604.08566 581.41404,612.82322 568.00131,612.82322 C 561.14497,612.82322 554.88855,610.23923 548.9321,604.97699 L 548.9321,611.22912 L 544.47548,611.22912 L 544.47548,589.9873" class="ps00" id="path10461"/>
      <path style="fill:#09367a;fill-opacity:1;fill-rule:nonzero;stroke:none" d="M 598.04068,589.9873 L 602.49731,589.9873 L 602.49731,598.42917 C 608.66802,605.07983 614.62447,608.35802 621.78078,608.35802 C 631.80819,608.35802 639.22161,601.20171 639.22161,591.97564 C 639.22161,584.72934 635.15066,579.86562 627.52297,577.87728 L 614.2388,574.40625 C 604.2971,571.82655 599.32625,566.16578 599.32625,557.2311 C 599.32625,546.01669 607.59671,538.17475 619.50962,538.17475 C 625.93744,538.17475 631.42252,540.65589 636.95045,545.91813 L 636.95045,539.76456 L 641.10711,539.76456 L 641.10711,558.6238 L 636.95045,558.6238 L 636.95045,551.96886 C 631.9796,545.51961 626.53737,542.44282 619.89529,542.44282 C 610.33925,542.44282 604.21139,548.39927 604.21139,556.93542 C 604.21139,563.58608 607.76812,567.45563 615.2244,569.43969 L 629.53702,573.21496 C 638.75024,575.59754 644.32102,582.2482 644.32102,591.18287 C 644.32102,604.08566 634.97925,612.82322 621.56652,612.82322 C 614.71017,612.82322 608.45376,610.23923 602.49731,604.97699 L 602.49731,611.22912 L 598.04068,611.22912 L 598.04068,589.9873" class="ps00" id="path10463"/>
    </g>
  </g>
</svg>